<?xml version="1.0" encoding="UTF-8" standalone="no"?>
<svg
   height="16"
   viewBox="0 0 16 16"
   width="16"
   version="1.1"
   id="svg1402"
   sodipodi:docname="government.svg"
   inkscape:version="1.1.2 (b8e25be833, 2022-02-05)"
   xmlns:inkscape="http://www.inkscape.org/namespaces/inkscape"
   xmlns:sodipodi="http://sodipodi.sourceforge.net/DTD/sodipodi-0.dtd"
   xmlns="http://www.w3.org/2000/svg"
   xmlns:svg="http://www.w3.org/2000/svg">
  <defs
     id="defs1406">
    <filter
       style="color-interpolation-filters:sRGB;"
       inkscape:label="Greyscale"
       id="filter1467"
       x="0"
       y="0"
       width="1"
       height="1">
      <feColorMatrix
         values="0.21 0.72 0.072 0 0 0.21 0.72 0.072 0 0 0.21 0.72 0.072 0 0 0 0 0 1 0 "
         id="feColorMatrix1465" />
    </filter>
  </defs>
  <sodipodi:namedview
     id="namedview1404"
     pagecolor="#ffffff"
     bordercolor="#666666"
     borderopacity="1.0"
     inkscape:pageshadow="2"
     inkscape:pageopacity="0.0"
     inkscape:pagecheckerboard="0"
     showgrid="false"
     inkscape:zoom="44.9375"
     inkscape:cx="7.9888734"
     inkscape:cy="7.9888734"
     inkscape:window-width="1920"
     inkscape:window-height="1027"
     inkscape:window-x="-8"
     inkscape:window-y="-8"
     inkscape:window-maximized="1"
     inkscape:current-layer="svg1402" />
  <g
     transform="translate(0 -1036.3621)"
     id="g1400"
     style="filter:url(#filter1467)">
    <path
       d="m11.031468 1039.3621c-.571473 0-1.031173.5365-1.031173 1.2025v.6846c-.0003919.013-.0003919.026 0 .039v.1148 3.9584c-.00913.7514.962812.7514.953685 0v-3.9584h.491463v10.2347c-.01173.9661 1.237895.9661 1.226168 0v-6.2782h.606984v6.2782c-.01162.9659 1.237788.9659 1.226169 0v-10.2347h.541489v3.9584c-.0092.7514.962855.7514.953685 0v-4.0735-.7235c0-.6658-.460553-1.2024-1.032025-1.2024h-3.936445z"
       fill="#3771c8"
       id="path1392" />
    <ellipse
       cx="13.000002"
       cy="1037.5664"
       fill="#3771c8"
       rx="1.204404"
       ry="1.204388"
       id="ellipse1394" />
    <path
       d="m0 1036.3621h1v16.000042h-1z"
       fill="#808080"
       id="path1396" />
    <path
       d="m1 1036.3621h8.000001v6.000042h-8.000001z"
       fill="#f00"
       id="path1398" />
  </g>
</svg>
